<?xml version="1.0" encoding="utf-8"?>
<!-- Generator: Adobe Illustrator 16.0.3, SVG Export Plug-In . SVG Version: 6.00 Build 0)  -->
<!DOCTYPE svg PUBLIC "-//W3C//DTD SVG 1.1//EN" "http://www.w3.org/Graphics/SVG/1.1/DTD/svg11.dtd">
<svg version="1.1" xmlns="http://www.w3.org/2000/svg" xmlns:xlink="http://www.w3.org/1999/xlink" x="0px" y="0px"
	 width="999.632px" height="268.863px" viewBox="0 0 999.632 268.863" enable-background="new 0 0 999.632 268.863"
	 xml:space="preserve">
<g id="Layer_2" display="none">
	
		<image display="inline" overflow="visible" width="11665" height="7874" xlink:href="../Downloads/ross-sokolovski-iDFumFZ5fFw-unsplash.jpg"  transform="matrix(-0.0917 0 0 0.086 973.541 -156.7183)">
	</image>
</g>
<g id="Layer_1">
	<g>
		<path fill="#472A2B" stroke="#472A2B" stroke-width="4" stroke-miterlimit="10" d="M83.784,254.375
			c0,0-51.269-6.861-69.399-17.875c-17.833-10.833-13.333-27-5.542-32.521c0,0,24.021-15.656,31.688-14.656
			c0,0,38.221-44.455,221.449-44.392s518.9-2.843,518.9-2.843s25.502,0.456,49.919-59.302L865.468,1h31.25
			c0,0,51.5,220-24.984,254.696l-764.837-0.515C106.896,255.182,95.551,254.891,83.784,254.375z"/>
		<path fill="#EF3E42" d="M102.96,191.868v62.507H83.784v-87.69h24.986c10.958,0,19.537,3.383,25.741,10.149
			c7.369,8.096,11.053,19.082,11.053,32.958c0,13.277-3.149,24.112-9.447,32.506c-6.298,8.395-14.405,12.593-24.324,12.593
			c-1.165,0-3.07-0.087-5.715-0.257v-25.763h3.07c11.177,0,16.767-6.359,16.767-19.079c0-11.95-5.495-17.924-16.484-17.924H102.96z"
			/>
		<path fill="#EF3E42" d="M154.792,254.249V188.29c0-11.563,2.752-20.818,8.254-27.768c5.503-6.948,12.83-10.422,21.981-10.422
			c9.112,0,16.084,3.375,20.917,10.125c4.831,6.75,7.248,16.452,7.248,29.108v64.916h-24.022v-64.916
			c0-6.204-1.755-9.306-5.266-9.306c-3.393,0-5.088,3.102-5.088,9.306v64.916H154.792z"/>
		<path fill="#EF3E42" d="M229.43,254.249v-69.229c0-12.136,2.963-21.851,8.889-29.145c5.926-7.292,13.816-10.938,23.671-10.938
			c9.813,0,17.32,3.542,22.524,10.626c5.203,7.084,7.805,17.267,7.805,30.552v68.134h-25.87v-68.134
			c0-6.512-1.891-9.768-5.671-9.768c-3.654,0-5.479,3.256-5.479,9.768v68.134H229.43z"/>
		<path fill="#00A4E4" d="M411.154,176.243v78.006h-25.87v-78.006h-19.816v-31.427h65.438v31.427H411.154z"/>
		<path fill="#00A4E4" d="M472.005,199.332v28.861h-7.455v26.056h-25.87v-69.588c0-13.469,2.92-23.931,8.761-31.387
			c5.84-7.456,14.05-11.184,24.627-11.184c10.194,0,17.735,3.381,22.62,10.142c4.885,6.762,7.328,17.196,7.328,31.307v70.71h-25.87
			v-68.546c0-4.275-0.404-7.241-1.21-8.898c-0.808-1.656-2.252-2.485-4.333-2.485c-4.036,0-6.053,3.795-6.053,11.384v13.629H472.005
			z"/>
		<path fill="#00A4E4" d="M543.56,144.816v109.433H517.69V144.816H543.56z"/>
		<path fill="#00A4E4" d="M559.171,144.816h25.869v65.019c0,5.078,0.647,8.458,1.943,10.142s3.855,2.525,7.679,2.525H596v31.747
			h-6.882c-9.43,0-16.779-3.46-22.046-10.382c-5.268-6.921-7.901-16.528-7.901-28.821V144.816z"/>
		<path fill="#00A4E4" d="M695.019,144.816v78.808c0,9.835-2.358,17.852-7.073,24.051c-4.715,6.201-10.812,9.3-18.287,9.3
			c-9.006,0-15.888-5.157-20.645-15.473c-2.932,5.56-6.075,9.527-9.431,11.905s-7.498,3.567-12.425,3.567
			c-7.816,0-13.806-3.099-17.969-9.3c-4.163-6.199-6.244-15.124-6.244-26.776v-76.082h25.869v71.191c0,3.527,0.224,5.853,0.67,6.975
			c0.445,1.122,1.348,1.684,2.708,1.684c2.548,0,3.822-2.698,3.822-8.097v-71.753h25.87v71.191c0,3.421,0.232,5.72,0.701,6.895
			c0.467,1.177,1.38,1.764,2.739,1.764c2.549,0,3.823-2.886,3.823-8.658v-71.191H695.019z"/>
		<path fill="#00A4E4" d="M736.563,144.816v109.433h-25.869V144.816H736.563z"/>
		<path fill="#00A4E4" d="M752.174,254.249v-71.031c0-12.452,2.963-22.42,8.889-29.903c5.926-7.482,13.815-11.224,23.671-11.224
			c9.813,0,17.321,3.635,22.524,10.903s7.806,17.717,7.806,31.347v69.908h-25.869v-69.908c0-6.681-1.891-10.021-5.671-10.021
			c-3.654,0-5.48,3.341-5.48,10.021v69.908H752.174z"/>
		<path fill="#00A4E4" d="M854.844,130.949v122.93h-24.042V81.424h31.325c13.739,0,24.496,6.654,32.273,19.961
			c9.237,15.919,13.858,37.524,13.858,64.813c0,26.112-3.95,47.422-11.845,63.929c-7.896,16.51-18.061,24.764-30.496,24.764
			c-1.461,0-3.85-0.171-7.165-0.506v-50.664h3.849c14.013,0,21.021-12.508,21.021-37.523c0-23.499-6.89-35.249-20.667-35.249
			H854.844z"/>
		<path fill="#472A2B" d="M380.356,253.374c0,0-10.903,21.807-74.336,15.265c0,0,2.577-5.751-12.489-11.4
			c0,0-6.344-3.27,14.272-11.396l221.822-22.601c0,0,8.721-0.792,16.254-8.722l46.387-55.703c0,0,3.567-4.362,9.713-5.551
			l10.903-2.379l-38.26,73.346c0,0-13.876,3.37-25.57,5.947C537.356,232.758,380.356,253.374,380.356,253.374z"/>
		<path fill="#472A2B" d="M857.551,206c0,0-1.499-2.167,2.834-3.5c0,0,121.5-16.666,122.5-16.666s11.166-1.167,14.666,0
			c0,0,0.667,0.666-1.833,1.333L940.259,201l-32.374,5.896C907.885,206.896,864.884,218.5,857.551,206z"/>
	</g>
</g>
<g id="Layer_3">
	<rect x="887.218" y="36" display="none" fill="#FFFFFF" width="78" height="7"/>
	<rect x="851.218" y="100" fill="#FFFFFF" width="78" height="7"/>
	<rect x="785.218" y="166" fill="#FFFFFF" width="152" height="7"/>
	<rect x="710.218" y="231" fill="#FFFFFF" width="219" height="7"/>
</g>
</svg>
